<?xml version="1.0" encoding="UTF-8"?>
<svg width="487px" height="395px" viewBox="0 0 487 395" version="1.1" xmlns="http://www.w3.org/2000/svg" xmlns:xlink="http://www.w3.org/1999/xlink">
    <title>heart-health</title>
    <defs>
        <linearGradient x1="0.00434782609%" y1="50.0008696%" x2="99.1243478%" y2="50.0008696%" id="linearGradient-1">
            <stop stop-color="#0EB1D2" offset="0%"></stop>
            <stop stop-color="#1EC7BB" offset="100%"></stop>
        </linearGradient>
        <linearGradient x1="-0.0037037037%" y1="49.9940741%" x2="99.1262963%" y2="49.9940741%" id="linearGradient-2">
            <stop stop-color="#0EB1D2" offset="0%"></stop>
            <stop stop-color="#1EC7BB" offset="100%"></stop>
        </linearGradient>
        <linearGradient x1="-0.00333333333%" y1="49.9966667%" x2="99.1266667%" y2="49.9966667%" id="linearGradient-3">
            <stop stop-color="#0EB1D2" offset="0%"></stop>
            <stop stop-color="#1EC7BB" offset="100%"></stop>
        </linearGradient>
    </defs>
    <g id="Page-1" stroke="none" stroke-width="1" fill="none" fill-rule="evenodd">
        <g id="heart-health">
            <g id="Page-1" transform="translate(27.000000, 0.000000)" fill-rule="nonzero">
                <path d="M415,269 C415,281.7 404.7,292 392,292 C379.3,292 369,281.7 369,269 C369,256.3 379.3,246 392,246 C404.7,246 415,256.3 415,269" id="Fill-3" fill="url(#linearGradient-1)" opacity="0.2601"></path>
                <path d="M81,53.5 C81,75.9 62.9,94 40.5,94 C18.1,94 0,75.9 0,53.5 C0,31.1 18.1,13 40.5,13 C62.9,13 81,31.1 81,53.5" id="Fill-5" fill="url(#linearGradient-2)"></path>
                <path d="M188,354.5 C188,376.9 169.9,395 147.5,395 C125.1,395 107,376.9 107,354.5 C107,332.1 125.1,314 147.5,314 C169.9,314 188,332.1 188,354.5" id="Fill-7" fill="url(#linearGradient-2)" opacity="0.2601"></path>
                <path d="M428,45 C428,69.9 407.9,90 383,90 C358.1,90 338,69.9 338,45 C338,20.1 358.2,0 383,0 C407.8,0 428,20.1 428,45" id="Fill-9" fill="url(#linearGradient-3)" opacity="0.2601"></path>
                <path d="M104.4,93 C104.3,93.1 104.2,93.2 104.1,93.2 C104.1,93.2 104.1,93.2 104,93.2 C104.1,93.2 104.2,93.1 104.4,93" id="Fill-13" fill="#FBF6BC"></path>
                <path d="M394.2,48 L371.9,48 C370.3,48 369.1,46.9 369.1,45.5 C369.1,44.1 370.4,43 371.9,43 L394.2,43 C395.8,43 397,44.1 397,45.5 C397,46.9 395.7,48 394.2,48" id="Fill-15" fill="#333C48"></path>
                <path d="M383.5,60 C382.1,60 381,58.7 381,57.2 L381,34.8 C381,33.2 382.1,32 383.5,32 C384.9,32 386,33.3 386,34.8 L386,57.1 C386,58.7 384.9,60 383.5,60" id="Fill-17" fill="#333C48"></path>
                <path d="M228,190 C228.1,189.7 228.3,189.3 228.5,189 L228,190 Z" id="Fill-37" fill="#BBE3E9"></path>
            </g>
            <g id="Page-1_1_" transform="translate(98.000000, 74.000000)" fill-rule="nonzero">
                <g id="Group" transform="translate(4.000000, 3.000000)" fill="#EBEFFF">
                    <path d="M73.7,157.6 L74.8,157.6 L54.2,136.8 C28.8,103.5 31.3,55.9 61.9,25.5 C73.8,13.7 88.3,6.1 103.6,2.8 C118.8,6.2 58.2,-8.1 25,25.1 C-5.6,55.6 -8.1,103.5 17.5,136.8 L44.3,165.8 L46.4,166.3 L158.1,277.4 L176.1,259.5 L73.7,157.6 Z" id="Path"></path>
                    <path d="M199.1,6.3 C198.1,6.7 197,7.2 196,7.6 C196.3,7.8 196.6,8.1 196.9,8.5 C197.4,7.7 198.2,7 199.1,6.3 Z" id="Path"></path>
                    <path d="M208.5,3.2 C212.5,2.5 216.7,2.1 219.8,1.4 C221.5,1 222.9,0.7 224.2,0.5 C218.9,0.9 213.7,1.8 208.5,3.2 Z" id="Path"></path>
                    <polygon id="Path" points="182.5 182.9 182.2 183 174.7 193.6 170.6 185.4 170 185.5 174.4 194.4"></polygon>
                </g>
                <path d="M21.7,144.6 C20.4,144.6 19.2,144 18.3,142.9 C-8.8,107.7 -5.5,57.5 26.2,26.1 C43.1,9.3 65.6,0 89.5,0 C113.4,0 135.9,9.3 152.8,26.1 C156.3,29.5 159.5,33.4 162.4,37.5 C165.3,33.3 168.6,29.5 172,26.1 C188.9,9.3 211.4,0 235.3,0 C259.2,0 281.7,9.3 298.6,26.1 C329.8,57.1 333.8,105.4 308,140.9 C306.6,142.8 303.9,143.2 302.1,141.9 C300.2,140.5 299.8,137.9 301.1,136 C324.4,103.9 320.8,60.2 292.6,32.1 C277.3,16.8 257,8.5 235.3,8.5 C213.6,8.5 193.3,16.9 178,32.1 C173.5,36.5 169.5,41.7 166,47.5 C164.5,50 160.3,50 158.7,47.5 C155.2,41.7 151.1,36.5 146.7,32.1 C131.4,16.8 111.1,8.5 89.5,8.5 C67.9,8.5 47.5,16.9 32.2,32.1 C3.6,60.5 0.5,106 25.1,137.9 C26.5,139.8 26.2,142.4 24.3,143.8 C23.5,144.3 22.6,144.6 21.7,144.6" id="Fill-9_1_" fill="#191B37"></path>
                <g id="Group-13" transform="translate(36.826291, 156.581006)" fill="#191B37">
                    <path d="M125.8,129.4 C124.7,129.4 123.6,129 122.8,128.2 L1.5,7.4 C-0.2,5.7 -0.2,3.1 1.5,1.4 C3.2,-0.3 5.9,-0.3 7.5,1.4 L125.8,119.2 L243.2,2.3 C244.9,0.6 247.6,0.6 249.2,2.3 C250.8,4 250.9,6.6 249.2,8.3 L128.8,128.2 C128,129 126.9,129.4 125.8,129.4" id="Fill-11"></path>
                </g>
            </g>
            <g id="Page-1_2_" transform="translate(0.000000, 51.000000)" fill="#191B37" fill-rule="nonzero">
                <path d="M442,106.1 L446.1,102 L450.2,106.1 L446.1,110.2 L442,106.1 Z M451.4,115.4 L455.4,111.4 L459.5,115.4 L455.4,119.5 L451.4,115.4 Z M460.8,124.8 L464.9,120.7 L469,124.8 L464.9,128.9 L460.8,124.8 Z" id="Fill-6"></path>
                <path d="M460.8,106 L464.8,102 L468.9,106 L464.8,110.1 L460.8,106 Z M451.4,115.4 L455.5,111.3 L459.5,115.4 L455.5,119.5 L451.4,115.4 Z M442,124.8 L446.1,120.7 L450.2,124.8 L446.1,128.8 L442,124.8 Z" id="Fill-8"></path>
                <polygon id="Fill-10" points="416.3 329.1 422.1 329.1 422.1 323.3 416.3 323.3"></polygon>
                <polygon id="Fill-12" points="416.3 342.2 422.1 342.2 422.1 336.5 416.3 336.5"></polygon>
                <polygon id="Fill-13_1_" points="416.4 316.5 422.1 316.5 422.1 292.6 416.4 292.6"></polygon>
                <polygon id="Fill-14_1_" points="13.5 5.9 19.3 5.9 19.3 0.1 13.5 0.1"></polygon>
                <polygon id="Fill-15_1_" points="0.3 5.9 6.1 5.9 6.1 0.2 0.3 0.2"></polygon>
                <polygon id="Fill-16" points="26.1 5.9 50.1 5.9 50.1 0.1 26.1 0.1"></polygon>
                <path d="M74.5,256.8 L68.7,256.8 L68.6,251 L74.5,251 L74.5,256.8 L74.5,256.8 Z M84.7,263.1 L82,260.9 L80.1,258.8 L84.4,254.9 L86.3,257 L84.2,258.9 L86.4,257 L88.7,258.8 L84.7,263.1 Z M59,263.5 L55,259.4 L57.4,256.9 L59.7,255.1 L63.3,259.6 L61,261.4 L59,263.5 Z M51,274.6 L51,271.6 C51,270 52.3,268.7 53.9,268.7 C55.5,268.7 56.8,270 56.8,271.6 L56.8,274.5 L51,274.6 Z M92.4,274.6 L86.6,274.4 L86.6,268.6 L92.4,268.5 L92.4,274.6 Z M83.8,288.3 L80.2,283.8 L82.5,282 L84.4,279.9 L88.4,284 L86,286.5 L83.8,288.3 Z M58.9,288.3 L57,286.2 L59.1,284.3 L56.9,286.2 L54.6,284.4 L58.5,280.1 L61.2,282.3 L63.1,284.4 L58.9,288.3 Z M74.6,292.2 L68.8,292.2 L68.7,286.4 L74.5,286.4 L74.6,292.2 Z" id="Fill-17_1_"></path>
                <path d="M65.6,133.3 L59.8,133.3 L59.7,127.5 L65.5,127.5 L65.6,133.3 Z M52,141.1 L52,135.3 L57.8,135.2 L57.8,141 L52,141.1 Z M67.5,141.1 L67.5,135.3 L73.3,135.1 L73.3,140.9 L67.5,141.1 Z M65.5,148.7 L59.7,148.7 L59.6,142.9 L65.4,142.9 L65.5,148.7 Z" id="Fill-18"></path>
            </g>
            <polyline id="Path-2" stroke="#5971C9" stroke-width="9" stroke-linecap="round" stroke-linejoin="round" points="83.2 223.706006 177.5 223.706006 224.240475 146 281.25 275.345388 340.343676 223.581006 481.772862 223.581006"></polyline>
        </g>
    </g>
</svg>